<?xml version="1.0" standalone="no"?>
<!DOCTYPE svg PUBLIC "-//W3C//DTD SVG 20010904//EN"
 "http://www.w3.org/TR/2001/REC-SVG-20010904/DTD/svg10.dtd">
<svg version="1.0" xmlns="http://www.w3.org/2000/svg"
 width="700.000000pt" height="700.000000pt" viewBox="0 0 700.000000 700.000000"
 preserveAspectRatio="xMidYMid meet">
<metadata>
Created by potrace 1.11, written by Peter Selinger 2001-2013
</metadata>
<g transform="translate(0.000000,700.000000) scale(0.100000,-0.100000)"
fill="#000000" stroke="none">
<path d="M5895 5235 c-58 -28 -67 -36 -155 -135 -36 -40 -74 -83 -85 -96 -11
-12 -33 -37 -50 -56 -53 -59 -212 -238 -270 -302 -5 -6 -44 -49 -85 -96 -41
-47 -79 -90 -85 -96 -5 -6 -37 -41 -70 -79 -33 -37 -65 -73 -70 -79 -6 -6 -67
-74 -135 -151 -69 -77 -129 -145 -135 -151 -5 -6 -39 -44 -75 -85 -66 -74
-151 -170 -160 -179 -3 -3 -39 -43 -80 -90 -118 -134 -144 -163 -165 -185 -11
-12 -49 -55 -84 -96 -36 -41 -72 -81 -80 -90 -9 -9 -43 -47 -76 -84 -33 -38
-69 -78 -81 -91 l-20 -23 -499 499 c-555 555 -542 544 -667 543 -130 -2 -77
46 -1088 -966 -1018 -1019 -976 -971 -974 -1101 1 -90 29 -152 100 -222 66
-64 130 -92 214 -92 128 0 83 -39 958 835 l794 793 491 -491 c529 -529 538
-537 642 -540 120 -4 172 23 292 157 43 48 154 174 193 219 19 22 42 47 50 55
8 8 44 49 80 90 36 41 72 81 80 90 8 9 44 49 80 90 36 40 70 78 75 84 6 6 62
70 125 141 63 72 119 135 125 141 5 6 37 41 70 79 33 38 69 78 80 89 11 12 45
50 75 85 30 35 64 74 75 85 11 12 47 52 80 89 94 107 97 111 145 164 25 28 61
68 80 90 19 21 65 73 101 114 37 41 108 121 159 179 115 130 222 249 235 264
87 94 162 188 178 225 43 96 16 237 -61 317 -78 81 -226 107 -327 59z"/>
</g>
</svg>
